<?xml version="1.0" encoding="UTF-8" standalone="no"?>
<!-- Created with Inkscape (http://www.inkscape.org/) -->

<svg
   xmlns:dc="http://purl.org/dc/elements/1.1/"
   xmlns:cc="http://creativecommons.org/ns#"
   xmlns:rdf="http://www.w3.org/1999/02/22-rdf-syntax-ns#"
   xmlns:svg="http://www.w3.org/2000/svg"
   xmlns="http://www.w3.org/2000/svg"
   version="1.2"
   width="599.03906"
   height="101.41601"
   id="svg3035">
  <defs
     id="defs3037" />
  <metadata
     id="metadata3040">
    <rdf:RDF>
      <cc:Work
         rdf:about="">
        <dc:format>image/svg+xml</dc:format>
        <dc:type
           rdf:resource="http://purl.org/dc/dcmitype/StillImage" />
        <dc:title></dc:title>
      </cc:Work>
    </rdf:RDF>
  </metadata>
  <path
     d="m 36,0 -20,100 24,0 5,-25 C 85,75 100,50 100,35 100,20 100,0 60,0 L 36,0 z m 19,25 c 15,10e-6 20,0 20,10 0,10.00001 -10,15.00001 -25,15 l 5,-25 z"
     id="rect3770-2-2-3-1-9"
     style="fill:#0075ff;fill-opacity:1;stroke:none" />
  <path
     d="M 0,0 0,25 29,25 34,0 0,0 z"
     id="rect3788-7-0-7-2-1"
     style="fill:#ff4230;fill-opacity:1;stroke:none" />
  <path
     d="M 0,50 0,75 19,75 24,50 0,50 z"
     id="rect3790-2-2-4-7-2"
     style="fill:#ff4230;fill-opacity:1;stroke:none" />
  <path
     d="m 151.52344,56.98242 c -6e-5,-5.72912 -1.30215,-10.09109 -3.90625,-13.08594 -2.57167,-2.99473 -6.31516,-4.49213 -11.23047,-4.49219 -6.51046,6e-5 -11.9792,2.92975 -16.40625,8.78907 -4.39456,5.82686 -6.59182,13.1348 -6.5918,21.92382 -2e-5,5.59899 1.28578,9.94469 3.85742,13.03711 2.57159,3.09246 6.15231,4.63869 10.74219,4.63867 3.74345,2e-5 7.06376,-0.78123 9.96094,-2.34375 2.92964,-1.59503 5.41987,-3.93878 7.4707,-7.03125 1.95307,-2.96221 3.45046,-6.2988 4.49219,-10.00976 1.07416,-3.7109 1.61127,-7.51949 1.61133,-11.42578 M 139.12109,25.78125 c 9.70047,7e-5 17.49668,2.70189 23.38868,8.10546 5.9244,5.37116 8.88663,12.4024 8.88671,21.09375 -8e-5,5.92452 -0.91153,11.52348 -2.73437,16.79688 -1.79044,5.27346 -4.41088,10.00978 -7.86133,14.20898 -4.23184,5.17579 -9.24485,9.04949 -15.03906,11.6211 -5.76177,2.53906 -12.41866,3.80859 -19.9707,3.80859 -9.668,0 -17.44794,-2.68554 -23.33985,-8.05664 -5.89193,-5.37108 -8.83789,-12.4186 -8.83789,-21.14258 0,-5.95699 0.89518,-11.57222 2.68555,-16.8457 1.79035,-5.27339 4.42707,-10.02599 7.91015,-14.25781 4.16665,-5.14317 9.13084,-8.98431 14.89258,-11.52344 5.79424,-2.53899 12.46741,-3.80852 20.01953,-3.80859"
     id="path2992"
     style="font-size:100px;font-style:oblique;font-variant:normal;font-weight:bold;font-stretch:normal;line-height:125%;letter-spacing:-7px;word-spacing:0px;fill:#0075ff;fill-opacity:1;stroke:none;font-family:Bitstream Vera Sans;-inkscape-font-specification:Bitstream Vera Sans Bold Oblique" />
  <path
     d="m 184.26953,27.09961 18.79883,0 -11.42578,58.6914 32.91015,0 -2.68554,14.20899 -51.80664,0 14.20898,-72.90039"
     id="path2994"
     style="font-size:100px;font-style:oblique;font-variant:normal;font-weight:bold;font-stretch:normal;line-height:125%;letter-spacing:-7px;word-spacing:0px;fill:#0075ff;fill-opacity:1;stroke:none;font-family:Bitstream Vera Sans;-inkscape-font-specification:Bitstream Vera Sans Bold Oblique" />
  <path
     d="m 240.94141,27.09961 18.79882,0 L 245.53125,100 l -18.79883,0 14.20899,-72.90039"
     id="path2996"
     style="font-size:100px;font-style:oblique;font-variant:normal;font-weight:bold;font-stretch:normal;line-height:125%;letter-spacing:-7px;word-spacing:0px;fill:#0075ff;fill-opacity:1;stroke:none;font-family:Bitstream Vera Sans;-inkscape-font-specification:Bitstream Vera Sans Bold Oblique" />
  <path
     d="m 262.55469,27.09961 67.1875,0 -2.78321,14.20898 -24.21875,0 L 291.31445,100 l -18.79883,0 11.42579,-58.69141 -24.21875,0 2.83203,-14.20898"
     id="path2998"
     style="font-size:100px;font-style:oblique;font-variant:normal;font-weight:bold;font-stretch:normal;line-height:125%;letter-spacing:-7px;word-spacing:0px;fill:#0075ff;fill-opacity:1;stroke:none;font-family:Bitstream Vera Sans;-inkscape-font-specification:Bitstream Vera Sans Bold Oblique" />
  <path
     d="m 332.41016,27.09961 18.79882,0 L 337,100 l -18.79883,0 14.20899,-72.90039"
     id="path3000"
     style="font-size:100px;font-style:oblique;font-variant:normal;font-weight:bold;font-stretch:normal;line-height:125%;letter-spacing:-7px;word-spacing:0px;fill:#0075ff;fill-opacity:1;stroke:none;font-family:Bitstream Vera Sans;-inkscape-font-specification:Bitstream Vera Sans Bold Oblique" />
  <path
     d="m 354.02344,27.09961 17.87109,0 8.93555,54.49218 30.17578,-54.49218 19.38476,0 L 389.22852,100 366.81641,100 354.02344,27.09961"
     id="path3002"
     style="font-size:100px;font-style:oblique;font-variant:normal;font-weight:bold;font-stretch:normal;line-height:125%;letter-spacing:-7px;word-spacing:0px;fill:#0075ff;fill-opacity:1;stroke:none;font-family:Bitstream Vera Sans;-inkscape-font-specification:Bitstream Vera Sans Bold Oblique" />
  <path
     d="m 459.13281,86.71875 -29.10156,0 -7.22656,13.28125 -19.28711,0 41.21094,-72.90039 21.48437,0 12.89063,72.90039 -17.8711,0 -2.09961,-13.28125 m -22.02148,-13.23243 19.58008,0 -4.39454,-28.07617 -15.18554,28.07617"
     id="path3004"
     style="font-size:100px;font-style:oblique;font-variant:normal;font-weight:bold;font-stretch:normal;line-height:125%;letter-spacing:-7px;word-spacing:0px;fill:#0075ff;fill-opacity:1;stroke:none;font-family:Bitstream Vera Sans;-inkscape-font-specification:Bitstream Vera Sans Bold Oblique" />
  <path
     d="m 478.40234,27.09961 67.1875,0 -2.7832,14.20898 -24.21875,0 L 507.16211,100 l -18.79883,0 11.42578,-58.69141 -24.21875,0 2.83203,-14.20898"
     id="path3006"
     style="font-size:100px;font-style:oblique;font-variant:normal;font-weight:bold;font-stretch:normal;line-height:125%;letter-spacing:-7px;word-spacing:0px;fill:#0075ff;fill-opacity:1;stroke:none;font-family:Bitstream Vera Sans;-inkscape-font-specification:Bitstream Vera Sans Bold Oblique" />
  <path
     d="m 548.35547,27.09961 50.68359,0 -2.7832,14.20898 -31.88477,0 -2.63672,13.57422 30.0293,0 -2.83203,14.20898 -29.98047,0 -3.22265,16.69922 32.91015,0 -2.68555,14.20899 -51.80664,0 14.20899,-72.90039"
     id="path3008"
     style="font-size:100px;font-style:oblique;font-variant:normal;font-weight:bold;font-stretch:normal;line-height:125%;letter-spacing:-7px;word-spacing:0px;fill:#0075ff;fill-opacity:1;stroke:none;font-family:Bitstream Vera Sans;-inkscape-font-specification:Bitstream Vera Sans Bold Oblique" />
</svg>
